<svg xmlns="http://www.w3.org/2000/svg" viewBox="0 0 200 48" fill="none">
  <!-- Icon: open book with trajectory -->
  <g transform="translate(4, 4)">
    <path d="M5 10C5 8 7 7 9 7C11 7 13 8 15 9C17 8 19 7 21 7C23 7 25 8 25 10V23C25 24 24 25 22 25C20 25 18 24 15 23C12 24 10 25 8 25C6 25 5 24 5 23V10Z" stroke="#2d7d7d" stroke-width="1.8" fill="none"/>
    <line x1="15" y1="9" x2="15" y2="23" stroke="#2d7d7d" stroke-width="1.5"/>
    <path d="M17 16L20 12L23 8" stroke="#2d7d7d" stroke-width="1.8" stroke-linecap="round" stroke-linejoin="round"/>
    <circle cx="23" cy="8" r="1.5" fill="#2d7d7d"/>
  </g>
  <!-- Wordmark -->
  <text x="44" y="22" font-family="Georgia, serif" font-weight="700" font-size="18" fill="#1e293b">Scholar</text>
  <text x="112" y="22" font-family="Georgia, serif" font-weight="700" font-size="18" fill="#2d7d7d">Folio</text>
  <text x="44" y="36" font-family="sans-serif" font-weight="400" font-size="9" fill="#94a3b8">Your research, at a glance</text>
</svg>
